<svg xmlns="http://www.w3.org/2000/svg" version="1.1" xmlns:xlink="http://www.w3.org/1999/xlink" width="34" height="21"><svg width="34" height="21" viewBox="0 0 34 21" fill="none" xmlns="http://www.w3.org/2000/svg">
<path d="M15.839 0.919506L0.377401 19.3574C-0.168306 20.0082 0.300915 21 1.1502 21C1.73915 21 2.301 20.7404 2.68101 20.2905L15.855 4.69187C16.2515 4.22244 16.9736 4.21825 17.3754 4.68304L23.6959 11.9927C24.0761 12.4324 23.5265 13.0575 23.0417 12.7367L21.7269 11.8664C21.3291 11.6031 20.7941 11.704 20.5196 12.0941C20.2032 12.5437 19.5568 12.597 19.171 12.2054L16.8821 9.8825C16.4904 9.48498 15.8492 9.48498 15.4575 9.8825L7.20924 18.2536C6.85824 18.6098 7.1106 19.2128 7.61071 19.2128C7.87825 19.2128 8.13707 19.1176 8.34089 18.9443L15.4984 12.8582C15.8821 12.5319 16.4487 12.5419 16.8206 12.8816L19.8047 15.6074C20.2237 15.9901 20.8769 15.9478 21.2431 15.5143L21.3369 15.4032C21.6565 15.0248 22.205 14.9374 22.6264 15.1977L31.6636 20.7805C31.8959 20.924 32.1635 21 32.4365 21C33.0588 21 33.3997 20.2751 33.0028 19.7958L17.3754 0.924258C16.9771 0.443262 16.2403 0.440982 15.839 0.919506Z" fill="#BC976F"></path>
</svg><style>@media (prefers-color-scheme: light) { :root { filter: contrast(1) brightness(0.1); } }
@media (prefers-color-scheme: dark) { :root { filter: none; } }
</style></svg>